<?xml version="1.0" encoding="UTF-8"?>
<svg version="1.1" xmlns="http://www.w3.org/2000/svg" width="710" height="574">
<path d="M0 0 C2.85594205 3.3843141 3.66620815 5.92960063 4.69921875 10.21484375 C5.01375 11.46910156 5.32828125 12.72335938 5.65234375 14.015625 C6.46634225 17.98586276 7.00244524 21.87691444 7.44921875 25.90234375 C8.52429688 25.74378906 9.599375 25.58523437 10.70703125 25.421875 C15.37246755 24.73965317 20.04182177 24.08659009 24.71142578 23.43359375 C27.38318461 23.05385847 30.05297415 22.66643297 32.72216797 22.26953125 C105.52425853 11.47057245 105.52425853 11.47057245 133.44921875 31.15234375 C140.18485441 36.82379905 143.79972511 44.65947465 146.44921875 52.90234375 C146.44921875 53.56234375 146.44921875 54.22234375 146.44921875 54.90234375 C147.53114502 54.89187012 148.61307129 54.88139648 149.7277832 54.87060547 C153.84119192 54.83369894 157.95458696 54.81119364 162.06811523 54.79248047 C163.82985922 54.78258034 165.59158752 54.76905679 167.35327148 54.75146484 C176.85354615 54.65915009 186.24900247 54.80046445 195.70703125 55.76953125 C196.83864433 55.88335648 196.83864433 55.88335648 197.99311829 55.9994812 C209.67613545 57.33273504 220.87778149 60.9475584 230.44921875 67.90234375 C231.1659375 68.4025 231.88265625 68.90265625 232.62109375 69.41796875 C244.01958014 78.24536799 247.04891295 94.17135379 251.26708984 107.25488281 C253.19585903 113.20610373 255.17417821 119.14065357 257.15338135 125.07525635 C257.89356839 127.29791207 258.63032777 129.52168303 259.36669922 131.74560547 C262.1221 140.04752273 264.93363654 148.32730232 267.81581116 156.58615112 C269.394324 161.11074533 270.96206297 165.63904993 272.53005981 170.16729736 C273.30412257 172.39187666 274.0837325 174.61453417 274.86911011 176.83514404 C275.97746579 179.97006115 277.06656152 183.11111188 278.15234375 186.25390625 C278.65300102 187.64564056 278.65300102 187.64564056 279.16377258 189.06549072 C281.19579074 195.02181367 282.28480951 200.59653146 281.44921875 206.90234375 C279.76171875 210.02734375 279.76171875 210.02734375 276.44921875 211.90234375 C267.46865252 213.51275223 258.1738366 211.07730755 249.34692383 209.47583008 C212.27435976 202.78155366 170.45885382 202.89913206 134.44921875 214.90234375 C132.14453125 215.2109375 132.14453125 215.2109375 129.57421875 215.33984375 C128.73117187 215.40042969 127.888125 215.46101562 127.01953125 215.5234375 C123.15454836 214.58949787 121.488547 212.11482068 119.44921875 208.90234375 C117.80028274 205.8252483 116.39152571 202.67032615 115.01171875 199.46484375 C114.43357422 198.14782471 114.43357422 198.14782471 113.84375 196.80419922 C112.69762885 194.17623894 111.56943258 191.54144019 110.44921875 188.90234375 C110.12679199 188.14453613 109.80436523 187.38672852 109.47216797 186.60595703 C104.30901854 174.37038311 104.30901854 174.37038311 103.44921875 167.90234375 C102.55847656 168.06089844 101.66773438 168.21945313 100.75 168.3828125 C89.79596441 170.32654685 78.83349324 172.21997311 67.8684082 174.1003418 C60.72123357 175.32846698 53.58114682 176.58847155 46.44921875 177.90234375 C46.68503662 178.70196533 46.92085449 179.50158691 47.16381836 180.32543945 C50.03135317 190.18788343 52.55425481 200.1183504 55.01171875 210.08984375 C55.78220977 213.20874256 56.55460724 216.32716308 57.328125 219.4453125 C57.51145889 220.18722839 57.69479279 220.92914429 57.88368225 221.69354248 C58.92065799 225.86650971 60.02523672 230.01138211 61.19921875 234.1484375 C62.66933261 239.47119355 63.28469173 244.40439255 62.44921875 249.90234375 C60.64803397 252.90431839 59.54589143 254.35400741 56.44921875 255.90234375 C50.73720462 256.55782078 50.73720462 256.55782078 48.44921875 255.90234375 C39.82933185 247.17922467 38.22123388 234.20905659 35.73046875 222.6328125 C32.55933407 208.15045543 29.01149998 193.77677047 25.38671875 179.40234375 C24.87655854 177.37192607 24.36698602 175.34136151 23.85748005 173.31077957 C16.92269583 145.67460723 9.91791647 118.05595743 2.92260742 90.43505859 C-1.83791025 71.63732986 -6.59345106 52.83848072 -11.30078125 34.02734375 C-11.6353685 32.69274109 -11.6353685 32.69274109 -11.97671509 31.33117676 C-12.58085824 28.92033307 -13.18337031 26.50908926 -13.78515625 24.09765625 C-14.03820778 23.08842606 -14.03820778 23.08842606 -14.29637146 22.05880737 C-15.97471986 15.31133172 -17.41165091 8.88364288 -16.55078125 1.90234375 C-14.7537171 -0.72907162 -13.5511463 -1.66416473 -10.67578125 -2.91015625 C-6.25025155 -3.30064417 -3.47975349 -2.86160432 0 0 Z M81.75390625 35.63671875 C81.01656754 35.71461136 80.27922882 35.79250397 79.51954651 35.87275696 C77.12060745 36.12822749 74.72236464 36.38953691 72.32421875 36.65234375 C71.5043045 36.74160126 70.68439026 36.83085876 69.83963013 36.92282104 C58.83509108 38.12626043 47.85027317 39.42774164 36.88671875 40.96484375 C35.79665527 41.11469727 34.7065918 41.26455078 33.58349609 41.41894531 C26.40564574 42.4620622 19.45249741 44.01964112 12.44921875 45.90234375 C13.06197636 53.50265277 14.74687991 60.57657709 16.6953125 67.9375 C17.19635471 69.86282365 17.6973942 71.78814801 18.19831276 73.71350384 C18.72769738 75.74357798 19.26008936 77.77284078 19.79342651 79.80187988 C21.44547433 86.08747011 23.0799399 92.37764095 24.71582222 98.66745377 C25.26136517 100.76426599 25.8076587 102.86088173 26.35398865 104.95748901 C29.87852199 118.49555757 33.27285496 132.06502259 36.61694336 145.64868164 C36.80591187 146.4128389 36.99488037 147.17699615 37.1895752 147.96430969 C37.68571113 149.97145249 38.17880761 151.97934594 38.67163086 153.98730469 C39.32040059 156.81268771 39.32040059 156.81268771 40.44921875 158.90234375 C45.35398905 159.13999076 49.48854491 158.56316275 54.23876953 157.34906006 C79.65358986 150.96346898 104.66312866 149.28904135 130.71356201 149.62768555 C134.3154491 149.66976537 137.91746556 149.68711224 141.51953125 149.70703125 C148.49638608 149.74901245 155.47275199 149.81659262 162.44921875 149.90234375 C161.97667936 147.97410092 161.50157848 146.04648569 161.02539062 144.11914062 C160.76109253 143.04563354 160.49679443 141.97212646 160.2244873 140.86608887 C159.36603206 137.58433247 158.26967017 134.52633856 156.94921875 131.40234375 C156.42040972 130.12560592 155.89321272 128.8481998 155.3671875 127.5703125 C154.91931885 126.4882251 154.91931885 126.4882251 154.46240234 125.38427734 C152.33935156 120.18357029 150.30985546 114.9453871 148.26171875 109.71484375 C147.30610282 107.27990347 146.35037165 104.84500842 145.39453125 102.41015625 C144.1661138 99.27932941 142.93799951 96.14838364 141.70983887 93.01745605 C141.21852029 91.76498774 140.72717212 90.51253104 140.23579407 89.26008606 C139.50985221 87.40968728 138.78410013 85.55921406 138.05834961 83.70874023 C137.11869014 81.31674774 136.1768336 78.92561703 135.23266602 76.53540039 C133.33734851 71.7359176 131.44671624 66.9392653 129.671875 62.09375 C125.42002201 50.5876929 120.42352116 44.27667803 109.58203125 38.3125 C100.57084093 34.25634077 91.38787774 34.59174574 81.75390625 35.63671875 Z M154.44921875 74.90234375 C155.00892506 78.86683993 155.84590956 82.2979909 157.390625 85.98828125 C158.00744141 87.47944458 158.00744141 87.47944458 158.63671875 89.00073242 C159.09046875 90.08201416 159.54421875 91.1632959 160.01171875 92.27734375 C161.00403286 94.67650645 161.99497192 97.07620119 162.984375 99.4765625 C163.25218781 100.12472427 163.52000061 100.77288605 163.79592896 101.44068909 C167.218176 109.73755295 170.54624295 118.07227045 173.87667847 126.40631104 C174.93426712 129.05243426 175.99354033 131.69787856 177.05297852 134.34326172 C177.71642169 136.00223342 178.37975655 137.66124845 179.04296875 139.3203125 C179.34259018 140.06835648 179.64221161 140.81640045 179.95091248 141.58711243 C185.86261872 156.3990218 185.86261872 156.3990218 185.76171875 160.65234375 C185.75785156 161.3690625 185.75398438 162.08578125 185.75 162.82421875 C185.26480313 166.17648804 184.24498914 168.21500801 181.671875 170.4375 C180.95902344 170.94152344 180.24617188 171.44554687 179.51171875 171.96484375 C175.50987567 174.96296723 171.92403854 178.19479884 168.38671875 181.71484375 C167.8976001 182.1951001 167.40848145 182.67535645 166.90454102 183.17016602 C164.22253045 185.58178879 164.22253045 185.58178879 163.44921875 188.90234375 C164.94910836 188.93000565 166.44915744 188.94902985 167.94921875 188.96484375 C168.78453125 188.97644531 169.61984375 188.98804688 170.48046875 189 C173.54439974 188.95291971 173.54439974 188.95291971 176.92773438 188.40673828 C182.20194583 187.7333669 187.45121745 187.74016391 192.76171875 187.734375 C193.84767334 187.7310466 194.93362793 187.7277182 196.05249023 187.72428894 C198.35204651 187.7192401 200.65161006 187.71687998 202.95117188 187.71704102 C206.3829447 187.71488538 209.81437902 187.69679396 213.24609375 187.67773438 C228.07639043 187.64126775 242.69532785 188.40074616 257.44921875 189.90234375 C256.82401932 183.04366533 254.59968411 176.81231089 252.40625 170.3125 C252.00017014 169.09517685 251.59409027 167.8778537 251.17570496 166.62364197 C250.31607898 164.04788303 249.45246269 161.4735102 248.58569336 158.90014648 C247.49154538 155.65134076 246.40515523 152.40001088 245.32143593 149.14771366 C241.29459662 137.06837821 237.2197927 125.02809814 232.65893555 113.13891602 C230.57950325 107.57543792 228.84991506 101.89723247 227.171875 96.20117188 C224.96206928 89.20697818 222.01537227 84.05781967 215.625 80.1953125 C214.68011719 79.83050781 213.73523438 79.46570313 212.76171875 79.08984375 C211.82972656 78.71214844 210.89773438 78.33445312 209.9375 77.9453125 C198.09653349 74.40495633 186.50697099 74.66578408 174.26171875 74.77734375 C172.3365932 74.78739324 170.41146257 74.79651561 168.48632812 74.8046875 C163.80716465 74.8265459 159.12824867 74.86096739 154.44921875 74.90234375 Z M123.44921875 166.90234375 C125.61844488 174.66772264 127.77567942 181.28149637 132.44921875 187.90234375 C137.03140586 187.04001789 139.56927623 184.30228812 142.82421875 181.15234375 C143.93483747 180.09362311 145.04680875 179.03631944 146.16015625 177.98046875 C146.70124023 177.46419922 147.24232422 176.94792969 147.79980469 176.41601562 C149.43632771 174.9141739 151.12903927 173.52370499 152.86328125 172.13671875 C154.14332031 171.03070313 154.14332031 171.03070313 155.44921875 169.90234375 C155.44921875 169.24234375 155.44921875 168.58234375 155.44921875 167.90234375 C151.29998817 167.11654582 147.39628444 166.78379392 143.17578125 166.8046875 C142.02207031 166.80791016 140.86835938 166.81113281 139.6796875 166.81445312 C137.89498047 166.82702148 137.89498047 166.82702148 136.07421875 166.83984375 C134.25470703 166.84661133 134.25470703 166.84661133 132.3984375 166.85351562 C129.41531368 166.86526021 126.43229196 166.88168535 123.44921875 166.90234375 Z " fill="#FE0605" transform="translate(217.55078125,29.09765625)"/>
<path d="M0 0 C10.48590355 8.38070303 17.39129966 22.24583858 18.91796875 35.5078125 C19.99928645 55.57120557 19.04459263 73.81647353 6.16796875 90.2578125 C-1.87384727 99.01352341 -13.00930548 105.07858782 -24.90234375 105.7109375 C-36.27875831 105.91943692 -45.12773186 104.61123504 -55.40625 99.390625 C-56.47319092 98.85066895 -57.54013184 98.31071289 -58.6394043 97.75439453 C-59.44547119 97.34302246 -60.25153809 96.93165039 -61.08203125 96.5078125 C-61.07679443 97.45922119 -61.07155762 98.41062988 -61.06616211 99.39086914 C-61.04775211 102.99730448 -61.03647096 106.60373589 -61.02709961 110.21020508 C-61.02214013 111.75676171 -61.01537048 113.30331384 -61.0065918 114.84985352 C-60.99415045 117.10173673 -60.98871937 119.35355687 -60.984375 121.60546875 C-60.97921371 122.27175797 -60.97405243 122.93804718 -60.96873474 123.62452698 C-60.96791738 130.97852154 -61.58882219 138.10967657 -62.08203125 145.5078125 C-74.29203125 145.5078125 -86.50203125 145.5078125 -99.08203125 145.5078125 C-99.08203125 95.3478125 -99.08203125 45.1878125 -99.08203125 -6.4921875 C-87.53203125 -6.4921875 -75.98203125 -6.4921875 -64.08203125 -6.4921875 C-63.09203125 -3.5221875 -62.10203125 -0.5521875 -61.08203125 2.5078125 C-59.92703125 1.6003125 -58.77203125 0.6928125 -57.58203125 -0.2421875 C-40.15311026 -13.2525088 -17.60307469 -12.6160873 0 0 Z M-58.51953125 34.0703125 C-62.5530974 40.3626757 -62.80140019 46.1957459 -62.08203125 53.5078125 C-60.59302687 59.88289112 -58.07851239 64.26700157 -52.9609375 68.3515625 C-46.02190061 72.62173905 -37.61027692 72.69508674 -29.75390625 71.0078125 C-24.21779458 68.88964803 -21.91862252 65.15111678 -19.33203125 60.0703125 C-16.74749045 52.5865048 -16.63056794 42.56538001 -19.890625 35.2578125 C-22.65729769 31.19397852 -26.68586854 27.70589386 -31.08203125 25.5078125 C-42.7967822 24.43791039 -50.10531454 25.2245975 -58.51953125 34.0703125 Z " fill="#01A29D" transform="translate(657.08203125,389.4921875)"/>
<path d="M0 0 C36.3 0 72.6 0 110 0 C110 11.88 110 23.76 110 36 C86.57 36 63.14 36 39 36 C39 44.58 39 53.16 39 62 C58.14 62 77.28 62 97 62 C97 73.55 97 85.1 97 97 C77.53 97 58.06 97 38 97 C38 113.83 38 130.66 38 148 C25.46 148 12.92 148 0 148 C0 99.16 0 50.32 0 0 Z " fill="#FF2800" transform="translate(35,345)"/>
<path d="M0 0 C0.83789062 0.61101562 1.67578125 1.22203125 2.5390625 1.8515625 C5.1863936 4.16272457 6.83251005 6.39867904 8.6875 9.375 C9.26886719 10.29023438 9.85023438 11.20546875 10.44921875 12.1484375 C13.77821459 18.26976486 14 21.70933621 14 29 C2.12 29 -9.76 29 -22 29 C-22.33 27.35 -22.66 25.7 -23 24 C-29.31613149 22.70438328 -35.75020145 22.21838322 -42 24 C-42.33 25.98 -42.66 27.96 -43 30 C-42.39518799 30.10449463 -41.79037598 30.20898926 -41.16723633 30.31665039 C-33.35061591 31.69978498 -25.58550219 33.29897685 -17.82788086 34.97680664 C-16.39276872 35.28569869 -14.95687904 35.59099872 -13.52026367 35.89282227 C-11.41146643 36.33598743 -9.30521919 36.78984518 -7.19921875 37.24609375 C-5.96002686 37.51091553 -4.72083496 37.7757373 -3.4440918 38.04858398 C5.2156608 40.44080458 10.40271444 45.24436885 14.9296875 52.83203125 C18.81072599 60.69325884 19.23379507 70.53356905 16.8046875 78.90234375 C13.43669239 87.68202033 8.12873529 94.22463332 0 99 C-16.21204192 106.13743109 -37.46287894 108.61751699 -54.30859375 102.26953125 C-58.78055728 100.16011449 -62.9368222 97.81753205 -67 95 C-68.051875 94.278125 -69.10375 93.55625 -70.1875 92.8125 C-76.8169337 86.1830663 -82.83416996 76.88682405 -83.06640625 67.2421875 C-83.04449219 66.50226563 -83.02257812 65.76234375 -83 65 C-74.11419416 64.22491413 -65.23034045 63.82874941 -56.3125 63.6875 C-55.35649902 63.65785156 -54.40049805 63.62820313 -53.41552734 63.59765625 C-46.61624142 63.53949091 -46.61624142 63.53949091 -43.48046875 65.8828125 C-42.74763672 66.93082031 -42.74763672 66.93082031 -42 68 C-38.664938 71.64772406 -36.67057082 72.84263534 -31.74609375 73.1328125 C-30.98425781 73.13023437 -30.22242188 73.12765625 -29.4375 73.125 C-28.67308594 73.12757813 -27.90867187 73.13015625 -27.12109375 73.1328125 C-24.81001505 73.07907384 -24.81001505 73.07907384 -22 72 C-20.77030122 68.48809191 -20.77030122 68.48809191 -20 65 C-20.8765625 64.78085937 -21.753125 64.56171875 -22.65625 64.3359375 C-24.64100833 63.83974792 -26.62571457 63.34334222 -28.60961914 62.84375 C-33.09702074 61.7159856 -37.58995388 60.61599532 -42.08984375 59.5390625 C-43.66378906 59.15741943 -43.66378906 59.15741943 -45.26953125 58.76806641 C-47.33952167 58.26620221 -49.41109239 57.77080012 -51.484375 57.28271484 C-61.87911377 54.74426456 -69.75997649 52.05481672 -76 43 C-80.93541227 34.18157955 -81.38624505 23.34840743 -78.875 13.6875 C-75.16797608 3.04255976 -66.10382966 -1.78161709 -56.5625 -6.8125 C-38.08831538 -12.97056154 -15.96937463 -11.80730102 0 0 Z " fill="#02A29D" transform="translate(522,390)"/>
<path d="M0 0 C2.76628915 -0.2667616 5.30619631 -0.34804189 8.0703125 -0.29296875 C9.26465408 -0.28660149 9.26465408 -0.28660149 10.48312378 -0.28010559 C13.03075729 -0.26328834 15.57760489 -0.22563179 18.125 -0.1875 C19.85024901 -0.17245705 21.57551039 -0.15876796 23.30078125 -0.14648438 C27.53415782 -0.11337501 31.76694559 -0.06157285 36 0 C34.8479527 6.37669737 33.36989138 12.44239819 31.25 18.5625 C30.95399902 19.43358398 30.65799805 20.30466797 30.35302734 21.20214844 C29.6525409 23.26023293 28.94900108 25.31727955 28.24316406 27.37353516 C27.09459962 30.72404109 25.95334209 34.07691214 24.8147583 37.43081665 C17.15254467 60.00051257 9.36813116 82.527325 1.5426178 105.04084778 C1.18437424 106.07150864 0.82613068 107.10216949 0.45703125 108.1640625 C0.09657211 109.20104782 -0.26388702 110.23803314 -0.63526917 111.30644226 C-3.366415 119.16723562 -6.08558452 127.03212254 -8.80078125 134.8984375 C-9.60447187 137.22551157 -10.40818266 139.55257868 -11.21191406 141.87963867 C-12.36766362 145.22602446 -13.52290593 148.57257933 -14.67614746 151.91983032 C-18.53660336 163.12395087 -22.43689058 174.31186096 -26.46484375 185.45703125 C-26.80552383 186.40438644 -27.14620392 187.35174164 -27.49720764 188.32780457 C-27.81129074 189.19134048 -28.12537384 190.0548764 -28.44897461 190.94458008 C-28.86329994 192.08713005 -28.86329994 192.08713005 -29.28599548 193.25276184 C-30 195 -30 195 -31 196 C-33.6662603 196.08855161 -36.30647114 196.11524673 -38.97265625 196.09765625 C-39.77029892 196.0962413 -40.56794159 196.09482635 -41.38975525 196.09336853 C-43.94737435 196.08775316 -46.50490718 196.07519812 -49.0625 196.0625 C-50.79231645 196.05748698 -52.52213426 196.05292373 -54.25195312 196.04882812 C-58.50133553 196.03777875 -62.75065312 196.02050386 -67 196 C-65.84061959 188.50037052 -64.05273521 181.55287943 -61.5 174.4140625 C-61.15233582 173.41980255 -60.80467163 172.4255426 -60.44647217 171.40115356 C-59.69648465 169.25883098 -58.94285554 167.11778038 -58.18591309 164.97790527 C-56.13374521 159.17585742 -54.10830051 153.3644587 -52.078125 147.5546875 C-51.65750793 146.35356323 -51.23689087 145.15243896 -50.80352783 143.91491699 C-46.75229312 132.33249866 -42.80716351 120.71513952 -38.8789978 109.09051514 C-31.88613547 88.39980837 -24.78058212 67.75264983 -17.5171814 47.15541077 C-15.74794066 42.13550464 -13.99153575 37.11127748 -12.2434845 32.08395386 C-11.03695959 28.61436816 -9.82728484 25.14588458 -8.61734009 21.67749023 C-8.04478356 20.03377493 -7.47360827 18.38957777 -6.90390015 16.74487305 C-6.12208733 14.48870393 -5.33509264 12.23440676 -4.546875 9.98046875 C-4.31734634 9.31379684 -4.08781769 8.64712494 -3.85133362 7.96025085 C-2.80610799 4.98672669 -1.76261106 2.64391658 0 0 Z " fill="#FC8003" transform="translate(316,330)"/>
<path d="M0 0 C11.88 0 23.76 0 36 0 C33.75010899 11.24945506 33.75010899 11.24945506 32.42211914 15.03588867 C32.12248764 15.9008194 31.82285614 16.76575012 31.5141449 17.65689087 C31.19107864 18.56804657 30.86801239 19.47920227 30.53515625 20.41796875 C30.19013565 21.40840179 29.84511505 22.39883484 29.48963928 23.41928101 C28.35323108 26.67747509 27.20778461 29.93241666 26.0625 33.1875 C25.25757026 35.49119996 24.45338508 37.79516019 23.64990234 40.09936523 C21.96293529 44.93593169 20.27311696 49.77148832 18.58154297 54.60644531 C14.80474341 65.41160081 11.07069976 76.23151878 7.33676147 87.05154419 C6.12409029 90.56513579 4.91042731 94.07838346 3.6965332 97.59155273 C-0.40135411 109.45383047 -4.48640289 121.32034409 -8.54727173 133.19534302 C-13.0507792 146.36282672 -17.58870562 159.51826896 -22.1583252 172.66296387 C-22.84070392 174.62689695 -23.5221114 176.59116778 -24.20251465 178.55578613 C-25.14648197 181.28037932 -26.09419471 184.00364005 -27.04296875 186.7265625 C-27.32776596 187.55070648 -27.61256317 188.37485046 -27.9059906 189.22396851 C-29.88566197 194.88566197 -29.88566197 194.88566197 -31 196 C-33.6662603 196.08855161 -36.30647114 196.11524673 -38.97265625 196.09765625 C-39.77029892 196.0962413 -40.56794159 196.09482635 -41.38975525 196.09336853 C-43.94737435 196.08775316 -46.50490718 196.07519812 -49.0625 196.0625 C-50.79231645 196.05748698 -52.52213426 196.05292373 -54.25195312 196.04882812 C-58.50133553 196.03777875 -62.75065312 196.02050386 -67 196 C-65.8456109 188.73479684 -64.20425523 181.89622822 -61.83203125 174.9375 C-61.52069244 174.00499924 -61.20935364 173.07249847 -60.88858032 172.11174011 C-59.8709932 169.07181892 -58.84214435 166.03585644 -57.8125 163 C-57.09022238 160.85339049 -56.36830419 158.70666002 -55.64672852 156.55981445 C-49.19818313 137.41856282 -42.55742548 118.34497514 -35.85888672 99.29003906 C-33.04197317 91.27647273 -30.2366607 83.25885655 -27.43548584 75.23977661 C-26.8152137 73.46461335 -26.19449112 71.68960742 -25.57330322 69.9147644 C-21.94608486 59.54935027 -18.36887553 49.16894215 -14.86328125 38.76171875 C-14.522435 37.75214615 -14.18158875 36.74257355 -13.83041382 35.70240784 C-12.18514806 30.82874473 -10.54683573 25.95298096 -8.921875 21.07250977 C-8.32973978 19.31385953 -7.73730748 17.55530928 -7.14453125 15.796875 C-6.88472977 15.00717819 -6.62492828 14.21748138 -6.35725403 13.40385437 C-6.105056 12.6605336 -5.85285797 11.91721283 -5.59301758 11.15136719 C-5.38066971 10.514953 -5.16832184 9.87853882 -4.94953918 9.22283936 C-3.57893979 6.01431218 -1.73103361 3.02930882 0 0 Z " fill="#FC8003" transform="translate(390,330)"/>
<path d="M0 0 C9.57 0 19.14 0 29 0 C29 48.84 29 97.68 29 148 C16.46 148 3.92 148 -9 148 C-9 114.67 -9 81.34 -9 47 C-18.24 47 -27.48 47 -37 47 C-37 37.1 -37 27.2 -37 17 C-33.90625 16.443125 -30.8125 15.88625 -27.625 15.3125 C-15.05482366 12.86276645 -8.89084339 10.16096387 0 0 Z " fill="#FF2800" transform="translate(192,345)"/>
</svg>
