<?xml version="1.0" encoding="UTF-8"?>
<svg version="1.1" xmlns="http://www.w3.org/2000/svg" width="710" height="574">
<path d="M0 0 C234.3 0 468.6 0 710 0 C710 189.42 710 378.84 710 574 C475.7 574 241.4 574 0 574 C0 384.58 0 195.16 0 0 Z " fill="#FEFEFE" transform="translate(0,0)"/>
<path d="M0 0 C3.11924484 0.8566108 4.77868866 2.29007056 7.0625 4.56640625 C8.35546875 7.66796875 8.35546875 7.66796875 9.25 11.19140625 C9.56839844 12.42375 9.88679688 13.65609375 10.21484375 14.92578125 C11.26987803 19.45708057 12.23930931 23.98774045 13.0625 28.56640625 C22.83261339 27.84369292 32.49446125 26.44775761 42.1875 25.06640625 C48.14424656 24.22128156 54.1022432 23.386429 60.0625 22.56640625 C60.91521484 22.44499268 61.76792969 22.3235791 62.64648438 22.19848633 C88.50692607 18.85666164 118.92623783 19.38706248 140.5 35.62890625 C146.31025382 41.1135855 150.28285734 49.86367811 152.0625 57.56640625 C152.65559464 57.57227249 153.24868927 57.57813873 153.85975647 57.58418274 C160.107075 57.64877736 166.35390934 57.73335476 172.60083008 57.82885742 C174.92335573 57.86184099 177.24595644 57.8899529 179.56860352 57.9128418 C202.82654207 58.14817508 224.99092713 59.35515298 242.45703125 76.5625 C246.94594612 82.16545213 249.07574309 88.08354264 251.0625 94.87890625 C252.48607397 99.67760201 253.94444584 104.38826226 255.87109375 109.01171875 C258.74853937 116.04585335 260.97363638 123.30124614 263.29251099 130.53363037 C264.71818445 134.97815264 266.15672546 139.41851256 267.59375 143.859375 C268.028937 145.20554901 268.028937 145.20554901 268.47291565 146.57891846 C271.09208878 154.67470233 273.74247442 162.75984287 276.42550659 170.83468628 C276.88546221 172.21997122 277.34425673 173.60564231 277.80178833 174.99172974 C280.09822554 181.94606604 282.46209038 188.83133314 285.26342773 195.60009766 C287.02420942 199.9329225 287.74235615 203.91619015 287.0625 208.56640625 C285.26886089 211.37644085 284.04369065 213.07581093 281.0625 214.56640625 C275.44767979 214.94707203 270.62451568 214.34783632 265.125 213.15625 C225.43603832 204.9021284 176.77905857 204.66088673 138.0625 217.56640625 C134.0209371 218.01546879 131.86344714 218.10037101 128.4375 215.81640625 C125.40077367 212.31325463 123.97304911 207.9314979 122.30859375 203.6640625 C121.21284064 200.94013705 119.99735895 198.40766548 118.625 195.81640625 C114.57741818 187.92683407 111.11403162 179.1965791 109.0625 170.56640625 C97.65324761 172.02770639 86.27473227 173.61798139 74.9375 175.56640625 C74.02798584 175.72012695 73.11847168 175.87384766 72.18139648 176.03222656 C65.38859301 177.22366517 58.73370657 178.82343915 52.0625 180.56640625 C55.50488431 196.02177524 59.24895435 211.35387505 63.44921875 226.62109375 C69.43139066 248.48640226 69.43139066 248.48640226 66.8125 254.37890625 C64.15789128 257.69716715 62.28958861 258.38364837 58.125 259.00390625 C54.93273859 258.54786891 53.32980384 257.9045712 51.20092773 255.45751953 C45.27490869 245.61343985 43.76567199 231.46609049 41.125 220.37890625 C38.73271553 210.35088555 36.33245246 200.34154552 33.51953125 190.421875 C31.17685157 182.15584608 29.17132374 173.83223027 27.24081421 165.46151733 C24.59476145 154.00764502 21.89475949 142.58275763 18.75 131.25390625 C14.61201264 116.34314163 11.04167171 101.28983982 7.4128418 86.2487793 C5.02990899 76.40137455 2.56829123 66.59863657 -0.19578552 56.85098267 C-2.24034529 49.59866982 -3.95384779 42.28838522 -5.625 34.94140625 C-6.21170756 32.38659651 -6.79893182 29.83190537 -7.38671875 27.27734375 C-7.65460205 26.10824463 -7.92248535 24.93914551 -8.19848633 23.73461914 C-8.8097805 21.11395035 -9.44898693 18.50498929 -10.1171875 15.8984375 C-11.02726397 12.20179357 -11.43745073 9.3517475 -10.9375 5.56640625 C-7.83290442 1.00653149 -5.24825049 0.01058115 0 0 Z " fill="#FF5833" transform="translate(211.9375,26.43359375)"/>
<path d="M0 0 C12.10704553 7.37933675 18.85762536 19.01031916 22.70703125 32.3125 C23.95883948 37.76412484 24.32420443 43.13623202 24.48828125 48.71484375 C24.54822266 50.01035156 24.54822266 50.01035156 24.609375 51.33203125 C25.0066501 65.9611024 20.99573555 81.51575972 11.3359375 92.7890625 C2.04530668 102.47253183 -7.93566543 108.14010884 -21.66552734 108.82177734 C-34.83844113 108.99506778 -44.45767055 106.08420922 -55.51171875 98.71484375 C-55.84171875 115.21484375 -56.17171875 131.71484375 -56.51171875 148.71484375 C-68.72171875 148.71484375 -80.93171875 148.71484375 -93.51171875 148.71484375 C-93.51171875 98.55484375 -93.51171875 48.39484375 -93.51171875 -3.28515625 C-81.96171875 -3.28515625 -70.41171875 -3.28515625 -58.51171875 -3.28515625 C-57.85171875 0.34484375 -57.19171875 3.97484375 -56.51171875 7.71484375 C-54.77921875 6.10609375 -54.77921875 6.10609375 -53.01171875 4.46484375 C-49.12705999 1.06748318 -45.29455672 -1.36656535 -40.51171875 -3.28515625 C-39.62871094 -3.64222656 -38.74570312 -3.99929688 -37.8359375 -4.3671875 C-25.5189378 -7.76847414 -11.22195676 -5.74187212 0 0 Z " fill="#012040" transform="translate(651.51171875,386.28515625)"/>
<path d="M0 0 C4.30756015 4.37099992 6.1835589 8.38998752 8 14.1875 C9.96016442 20.08757595 12.12793979 25.71129898 14.78515625 31.33984375 C18.16427585 38.73913778 20.81685393 46.4528792 23.5 54.125 C25.33878515 59.33585195 27.46515045 64.29355953 29.81640625 69.2890625 C31.4854064 73.11178891 32.69708544 77.04815871 33.9609375 81.01953125 C35.00720683 84.02067223 36.25731704 86.82016466 37.625 89.6875 C39.86333336 94.42587955 41.07122463 98.84951842 42 104 C40.91960449 103.92998779 39.83920898 103.85997559 38.72607422 103.7878418 C27.51916672 103.09403273 16.35242239 102.79594914 5.125 102.8125 C4.29250732 102.81343658 3.46001465 102.81437317 2.60229492 102.81533813 C-9.7122035 102.84526061 -21.80884407 103.1230945 -34 105 C-35.17594727 105.17724609 -36.35189453 105.35449219 -37.56347656 105.53710938 C-41.58704628 106.15274842 -45.60684532 106.78764384 -49.625 107.4375 C-50.89537109 107.64270264 -52.16574219 107.84790527 -53.47460938 108.05932617 C-59.78960805 109.12784467 -65.78845559 110.45269007 -71.88037109 112.42211914 C-74.62862995 113.17138529 -77.17066654 113.22336843 -80 113 C-83.58900474 100.05589102 -87.05476183 87.10731163 -90 74 C-92.17641082 64.33511306 -94.62152664 54.77664024 -97.23852539 45.22241211 C-99.55068255 36.74961934 -101.75243618 28.2527541 -103.8916626 19.73492432 C-104.25359237 18.29444948 -104.61681895 16.85429982 -104.98138428 15.41448975 C-105.49005179 13.40355085 -105.99385306 11.3914586 -106.49609375 9.37890625 C-106.78669678 8.2194751 -107.0772998 7.06004395 -107.37670898 5.86547852 C-108 3 -108 3 -108 0 C-96.47820642 -3.06523188 -84.8123988 -4.55095705 -73 -6 C-72.17081055 -6.10731445 -71.34162109 -6.21462891 -70.48730469 -6.32519531 C-18.59894261 -12.97213881 -18.59894261 -12.97213881 0 0 Z " fill="#FFFEFD" transform="translate(338,75)"/>
<path d="M0 0 C36.3 0 72.6 0 110 0 C110 11.88 110 23.76 110 36 C86.57 36 63.14 36 39 36 C39 44.58 39 53.16 39 62 C58.14 62 77.28 62 97 62 C97 73.55 97 85.1 97 97 C77.53 97 58.06 97 38 97 C38 113.83 38 130.66 38 148 C25.46 148 12.92 148 0 148 C0 99.16 0 50.32 0 0 Z " fill="#042342" transform="translate(35,345)"/>
<path d="M0 0 C1.22396484 0.4021875 1.22396484 0.4021875 2.47265625 0.8125 C13.15692814 4.68010973 21.42066806 11.39787907 26.32421875 21.8125 C28.33692052 27.01021403 29 30.25540056 29 36 C17.12 36 5.24 36 -7 36 C-7.33 34.35 -7.66 32.7 -8 31 C-14.00801401 28.53517374 -19.87094667 27.9782683 -26.0625 30 C-27.0215625 30.495 -27.0215625 30.495 -28 31 C-28 32.98 -28 34.96 -28 37 C-25.64651562 37.56546806 -23.29225125 38.12734586 -20.9375 38.6875 C-20.19032715 38.86684082 -19.4431543 39.04618164 -18.67333984 39.23095703 C-14.17567385 40.29713136 -9.67267562 41.27773422 -5.13671875 42.16796875 C20.44703193 47.24770728 20.44703193 47.24770728 27.8515625 57.11328125 C33.07766061 65.69901385 33.532034 76.21527802 31.34375 85.90625 C28.15758807 94.80552987 22.11417737 101.13290001 13.91796875 105.68359375 C-2.50282801 113.09163727 -23.37826302 114.56138953 -40.4375 108.25 C-51.47170438 103.20420805 -60.15120702 96.26888897 -64.6887207 84.80419922 C-68 75.90968252 -68 75.90968252 -68 72 C-62.66158219 71.85158376 -57.32436658 71.7427547 -51.984375 71.67041016 C-50.16840701 71.64025212 -48.35258451 71.59931802 -46.53710938 71.54736328 C-43.92541645 71.47449876 -41.31564942 71.44053633 -38.703125 71.4140625 C-37.89256653 71.38309479 -37.08200806 71.35212708 -36.24688721 71.32022095 C-34.00922279 71.31888749 -32.14990962 71.37510005 -30 72 C-27.65917969 74.91943359 -27.65917969 74.91943359 -26 78 C-20.79597711 81.0023209 -16.84014639 81.47097955 -11 81 C-8.11785113 80.11785113 -8.11785113 80.11785113 -6 79 C-5.67 76.69 -5.34 74.38 -5 72 C-11.88187805 69.71455256 -18.7501489 67.78592143 -25.81860352 66.18505859 C-53.30023056 59.94979309 -53.30023056 59.94979309 -61.44140625 47.859375 C-65.46344275 39.61910509 -65.56894287 28.68289906 -63.15234375 19.9296875 C-58.24885772 9.05890829 -48.47597856 3.99039143 -37.875 -0.25 C-26.43974357 -3.23311037 -11.2640108 -3.86445595 0 0 Z " fill="#022141" transform="translate(507,383)"/>
<path d="M0 0 C5.40359335 -0.10035245 10.80662129 -0.17215336 16.2109375 -0.21972656 C18.04176301 -0.23959897 19.87252718 -0.26670663 21.703125 -0.30175781 C36.68935157 -0.58110633 53.26448157 -0.10737655 66 9 C69.22418569 12.56720102 70.81984531 15.6788061 72.21875 20.26171875 C72.59386719 21.46376953 72.96898437 22.66582031 73.35546875 23.90429688 C73.73316406 25.15275391 74.11085938 26.40121094 74.5 27.6875 C75.25694739 30.15080833 76.01730949 32.6130702 76.78125 35.07421875 C77.2772168 36.70750122 77.2772168 36.70750122 77.78320312 38.3737793 C78.74926498 41.25277545 79.79501855 44.02685698 80.93603516 46.8371582 C82.89933529 51.67828985 84.60957645 56.57024246 86.2421875 61.53125 C86.5330423 62.40664429 86.82389709 63.28203857 87.12356567 64.18395996 C88.0435715 66.95503437 88.95939509 69.72746876 89.875 72.5 C90.48018516 74.32561487 91.08565213 76.15113634 91.69140625 77.9765625 C92.58859129 80.68029825 93.48493736 83.38429229 94.37811279 86.08935547 C95.82894237 90.4822542 97.29163274 94.87041809 98.78222656 99.25 C99.06260773 100.07769897 99.34298889 100.90539795 99.63186646 101.75817871 C100.16057302 103.3168267 100.69282918 104.87427673 101.22921753 106.43029785 C102.23780305 109.41162889 103 111.82917874 103 115 C101.70707031 114.86722656 100.41414063 114.73445313 99.08203125 114.59765625 C97.32552923 114.41918813 95.56901833 114.24080748 93.8125 114.0625 C92.96751953 113.97548828 92.12253906 113.88847656 91.25195312 113.79882812 C88.50231227 113.52077456 85.75161281 113.25779571 83 113 C82.03795654 112.90662354 81.07591309 112.81324707 80.0847168 112.71704102 C71.27426798 111.94094054 62.50077239 111.813823 53.6628418 111.81469727 C51.20148358 111.81251241 48.74057632 111.79428391 46.27929688 111.77539062 C37.24751321 111.74453843 28.54158534 112.2209742 19.60668945 113.5690918 C15.67656055 114.03864284 11.95387552 114.06891702 8 114 C11.70138604 109.37326745 15.69856391 105.3025182 20.0625 101.3125 C20.5687793 100.84932373 21.07505859 100.38614746 21.59667969 99.90893555 C23.92677914 97.80055181 26.14387607 95.90935208 28.80859375 94.23046875 C31.60504996 91.38416484 31.98549726 89.49756231 32.21240234 85.57763672 C31.79874977 80.55770129 29.78367806 76.14980378 27.8125 71.5625 C27.41224609 70.58990234 27.01199219 69.61730469 26.59960938 68.61523438 C25.80087197 66.6772929 24.99447148 64.74249086 24.18017578 62.81103516 C21.49812309 56.42271188 18.96918387 49.97326582 16.5 43.5 C14.7166483 38.84588703 12.89254382 34.21164472 11.02734375 29.58984375 C9.83859818 26.59312014 8.7026485 23.57803296 7.5625 20.5625 C5.57122526 15.33694984 3.34642026 10.27842233 0.91796875 5.2421875 C0 3 0 3 0 0 Z " fill="#FFFDFD" transform="translate(372,104)"/>
<path d="M0 0 C11.88 0 23.76 0 36 0 C34.09463525 7.621459 32.20417725 14.62396203 29.4375 21.875 C26.07559014 30.89560928 22.95623221 39.98491788 19.9375 49.125 C16.36660619 59.92284698 12.69943181 70.67935123 8.91259766 81.40332031 C7.13164005 86.47080696 5.38003289 91.54848955 3.625 96.625 C3.24593506 97.72102539 2.86687012 98.81705078 2.47631836 99.94628906 C1.70318364 102.18193014 0.93015371 104.41760746 0.15722656 106.65332031 C-1.72708229 112.10270972 -3.6136347 117.55132219 -5.5 123 C-6.25001119 125.16666279 -7.00001118 127.33332946 -7.75 129.5 C-9.25 133.83333333 -10.75 138.16666667 -12.25 142.5 C-12.6217334 143.5739502 -12.9934668 144.64790039 -13.37646484 145.75439453 C-14.12144769 147.90645927 -14.86656341 150.05847802 -15.61181641 152.21044922 C-17.56470879 157.85014237 -19.51482583 163.49077559 -21.4609375 169.1328125 C-22.06711914 170.88851562 -22.06711914 170.88851562 -22.68554688 172.6796875 C-23.45593689 174.91116204 -24.22552013 177.14291534 -24.99414062 179.375 C-25.34412109 180.38820313 -25.69410156 181.40140625 -26.0546875 182.4453125 C-26.35874512 183.32719238 -26.66280273 184.20907227 -26.97607422 185.11767578 C-28.27070811 188.76203622 -29.64203537 192.37876099 -31 196 C-42.88 196 -54.76 196 -67 196 C-65.64772537 189.91476414 -64.22168818 184.3345766 -62.12890625 178.53125 C-61.7122168 177.35413704 -61.7122168 177.35413704 -61.28710938 176.15324402 C-60.69233014 174.47383158 -60.09536098 172.79519335 -59.49636841 171.11727905 C-57.89177205 166.62020388 -56.30517831 162.11679166 -54.71875 157.61328125 C-54.39886612 156.70592728 -54.07898224 155.7985733 -53.74940491 154.86372375 C-50.92643053 146.83535194 -48.22459188 138.77036236 -45.5625 130.6875 C-41.23806589 117.57779181 -36.74257157 104.53129977 -32.1875 91.5 C-31.87257599 90.59897552 -31.55765198 89.69795105 -31.23318481 88.7696228 C-28.61588128 81.28582273 -25.99470781 73.80340074 -23.34692383 66.33032227 C-20.59287917 58.55695586 -17.88365622 50.77369687 -15.3125 42.9375 C-12.21836006 33.51347194 -12.21836006 33.51347194 -10.515625 29.05078125 C-8.30539586 23.24883872 -6.44001766 17.32779306 -4.51757812 11.42578125 C-4.22173828 10.52730469 -3.92589844 9.62882812 -3.62109375 8.703125 C-3.3573999 7.89520508 -3.09370605 7.08728516 -2.82202148 6.25488281 C-2 4 -2 4 0 0 Z " fill="#022141" transform="translate(316,330)"/>
<path d="M0 0 C11.88 0 23.76 0 36 0 C35.11179006 4.44104969 33.86808232 8.5048263 32.359375 12.75 C32.0849054 13.53160995 31.81043579 14.31321991 31.52764893 15.11851501 C30.92426094 16.83623579 30.31943905 18.55345337 29.71337891 20.27023315 C28.02519407 25.05376223 26.34873753 29.84139869 24.671875 34.62890625 C24.30678833 35.6706752 23.94170166 36.71244415 23.56555176 37.78578186 C17.97111479 53.77023876 12.48538244 69.79247107 6.9828577 85.80873871 C5.9055417 88.94421133 4.8277916 92.07953458 3.75 95.21484375 C3.33939835 96.40968384 2.92879669 97.60452393 2.50575256 98.83557129 C-0.23983645 106.81621542 -3.0110698 114.78746845 -5.82824707 122.7431488 C-7.74852051 128.18933124 -9.45446058 133.67428769 -11.109375 139.20703125 C-11.9388232 141.80815171 -12.88823651 144.29343488 -13.9375 146.8125 C-15.73639312 151.13689797 -17.13772338 155.52446583 -18.5 160 C-20.07240777 165.15842382 -21.80284031 170.16675876 -23.88671875 175.140625 C-26.5506555 181.98273623 -28.71072979 189.02813162 -31 196 C-42.88 196 -54.76 196 -67 196 C-66.24581497 191.4748898 -65.37955058 187.76401687 -63.9453125 183.47265625 C-63.73196259 182.83133759 -63.51861267 182.19001892 -63.29879761 181.52926636 C-62.57913262 179.37199162 -61.85232768 177.21720239 -61.125 175.0625 C-60.60669363 173.51703435 -60.08846696 171.97154197 -59.5703125 170.42602539 C-54.46330403 155.23491114 -49.23127339 140.08616115 -44 124.9375 C-43.58381409 123.73223663 -43.16762817 122.52697327 -42.73883057 121.28518677 C-41.53556823 117.80293762 -40.33067959 114.32125662 -39.125 110.83984375 C-38.76808075 109.80769745 -38.4111615 108.77555115 -38.04342651 107.71212769 C-36.04128462 101.93969329 -33.99195941 96.187377 -31.88600159 90.45196533 C-30.49316733 86.5973658 -29.21282904 82.70723801 -27.9375 78.8125 C-26.54068259 74.54794605 -25.13366474 70.29930249 -23.53515625 66.10546875 C-21.70401576 61.28764832 -20.10850178 56.39574559 -18.5 51.5 C-16.6865086 45.98033404 -14.83315682 40.49732651 -12.76367188 35.06835938 C-11.23109796 30.91747503 -9.88096599 26.70320216 -8.5 22.5 C-3.23012552 6.46025105 -3.23012552 6.46025105 0 0 Z " fill="#022141" transform="translate(390,330)"/>
<path d="M0 0 C9.24 0 18.48 0 28 0 C28 48.84 28 97.68 28 148 C15.46 148 2.92 148 -10 148 C-10 114.67 -10 81.34 -10 47 C-19.24 47 -28.48 47 -38 47 C-38 37.1 -38 27.2 -38 17 C-34.101875 16.62875 -34.101875 16.62875 -30.125 16.25 C-18.3105752 14.91983977 -10.36167312 11.77615261 -2 3 C-1.34 2.01 -0.68 1.02 0 0 Z " fill="#022140" transform="translate(193,345)"/>
<path d="M0 0 C5.23011218 1.87289307 9.03171169 5.31923767 12 10 C13.77761158 14.45681752 14.27099373 18.21342884 14.25 23 C14.25773438 24.7634375 14.25773438 24.7634375 14.265625 26.5625 C13.79909447 32.59995386 11.85538458 37.3329555 8 42 C2.51569838 46.48715587 -3.72507789 46.65890709 -10.58203125 46.453125 C-16.8171993 45.62651986 -20.93598438 43.00969942 -25.375 38.6875 C-29.58165418 31.73034117 -31.17922916 25.15255546 -30 17 C-27.67028926 9.50393997 -23.67050261 4.99052143 -17 1 C-12.12665974 -1.43667013 -5.33524558 -0.49002772 0 0 Z " fill="#FBFBFC" transform="translate(625,415)"/>
<path d="M0 0 C3.45831484 -0.02949232 6.91659654 -0.0469616 10.375 -0.0625 C11.34050781 -0.07087891 12.30601562 -0.07925781 13.30078125 -0.08789062 C19.59824289 -0.10902305 25.74839863 0.23892802 32 1 C32 1.66 32 2.32 32 3 C30.44759659 4.39325954 28.82970015 5.71380128 27.1875 7 C21.22245099 11.76429239 15.59970979 16.8118743 10 22 C5.86708223 16.66947538 3.25891295 11.20251326 1.375 4.7265625 C1.11460937 3.83791504 0.85421875 2.94926758 0.5859375 2.03369141 C0.39257812 1.36257324 0.19921875 0.69145508 0 0 Z " fill="#FFF7F5" transform="translate(341,196)"/>
</svg>
